# xmcd CD database file
#
# Track frame offsets:
#	180
#	28313
#	43824
#	65109
#	83268
#	112668
#	132279
#	159487
#	187824
#	207596
#
# Disc length: 3093 seconds
#
# Revision: 1
# Processed by: cddbd v1.5.2PL0 Copyright (c) Steve Scherf et al.
# Submitted via: CDex 1.99.1
#
DISCID=820c130a
DTITLE=Rabbai, George - Lemon Drop
DYEAR=1997
DGENRE=Jazz
TTITLE0=Thou Swell
TTITLE1=Do You Know What it Means?
TTITLE2=Persnickety
TTITLE3=I'm Confessing
TTITLE4=Lemon Drop
TTITLE5=I Want A Little Girl
TTITLE6=Pennies from Heaven
TTITLE7=September Song
TTITLE8=When I Take My Sugar To Tea
TTITLE9=There Will Be Some Changes Made
EXTD=YEAR: 1997
EXTT0=
EXTT1=
EXTT2=
EXTT3=
EXTT4=
EXTT5=
EXTT6=
EXTT7=
EXTT8=
EXTT9=
PLAYORDER=
